<?xml version="1.0" standalone="no"?>
<!DOCTYPE svg PUBLIC "-//W3C//DTD SVG 20010904//EN"
 "http://www.w3.org/TR/2001/REC-SVG-20010904/DTD/svg10.dtd">
<svg version="1.0" xmlns="http://www.w3.org/2000/svg"
 width="918.000000pt" height="300.000000pt" viewBox="0 0 918.000000 300.000000"
 preserveAspectRatio="xMidYMid meet">

<g transform="translate(0.000000,300.000000) scale(0.100000,-0.100000)"
fill="#000000" stroke="none">
<path d="M289 1974 c-22 -26 -1 -51 47 -57 29 -3 54 -13 68 -26 21 -21 21 -29
24 -404 1 -210 0 -392 -3 -405 -9 -37 -42 -62 -79 -62 -31 0 -66 -20 -66 -38
1 -32 16 -34 301 -30 314 5 346 10 475 73 74 36 158 110 199 175 61 96 84 265
55 394 -38 173 -184 316 -368 364 -65 17 -120 21 -359 25 -228 4 -285 2 -294
-9z m519 -59 c90 -12 199 -88 249 -172 58 -100 82 -244 63 -382 -23 -166 -78
-259 -186 -312 -63 -31 -75 -33 -169 -34 -111 0 -147 13 -165 61 -6 15 -10
199 -10 434 l0 409 58 4 c59 3 87 2 160 -8z"/>
<path d="M1414 1976 c-11 -29 4 -44 61 -60 89 -27 118 -64 244 -316 l111 -221
0 -155 c0 -151 -1 -156 -25 -179 -13 -14 -34 -25 -47 -25 -51 0 -69 -11 -66
-39 l3 -26 223 -3 222 -2 0 29 c0 32 -14 41 -61 41 -18 0 -39 10 -54 25 -24
23 -25 28 -25 177 l0 153 33 65 c18 36 73 140 121 233 102 193 136 232 213
242 67 9 73 12 73 33 0 11 -6 24 -12 29 -8 6 -93 9 -198 9 l-185 -1 0 -30 c0
-25 4 -30 25 -33 65 -7 89 -14 94 -27 3 -8 -40 -106 -95 -216 l-100 -202 -21
34 c-12 19 -54 102 -94 184 -113 235 -170 283 -346 293 -75 4 -88 2 -94 -12z"/>
<path d="M2497 1976 c-11 -29 4 -44 54 -56 92 -22 89 -6 89 -446 0 -226 -4
-393 -10 -408 -10 -29 -34 -41 -93 -51 -34 -6 -38 -9 -35 -33 l3 -27 177 -3
c174 -2 177 -2 183 20 9 28 -17 48 -62 48 -40 0 -70 27 -78 72 -3 18 -4 183
-3 366 l3 333 314 -421 315 -421 35 3 36 3 5 457 c5 451 5 458 26 479 14 13
39 23 68 26 33 4 47 11 52 25 13 41 -7 45 -189 44 l-172 -1 0 -30 c0 -26 4
-30 30 -33 50 -5 83 -22 93 -50 10 -25 26 -642 17 -642 -2 0 -111 141 -242
313 -131 171 -253 329 -272 350 -59 65 -120 89 -237 95 -87 4 -102 2 -107 -12z"/>
<path d="M3957 1976 c-10 -26 3 -44 36 -52 57 -12 87 -32 87 -60 0 -21 -269
-674 -317 -769 -26 -51 -54 -75 -88 -75 -43 0 -69 -21 -60 -48 6 -22 8 -22
198 -20 180 3 192 4 195 22 6 29 -25 46 -84 46 -87 0 -92 28 -32 181 l31 79
202 0 201 0 32 -78 c58 -139 54 -182 -17 -182 -45 0 -74 -19 -69 -46 3 -18 14
-19 218 -19 l215 0 3 24 c4 27 -12 41 -49 41 -54 0 -60 13 -250 480 -79 195
-157 375 -174 399 -44 66 -82 84 -185 89 -73 4 -88 2 -93 -12z m260 -421 l80
-205 -168 0 c-93 0 -169 3 -169 7 0 15 163 403 170 403 3 0 43 -92 87 -205z"/>
<path d="M4780 1975 c-23 -27 -3 -52 46 -58 29 -3 54 -13 68 -26 21 -21 21
-29 24 -404 1 -210 0 -392 -3 -405 -9 -37 -42 -62 -79 -62 -31 0 -66 -20 -66
-38 1 -30 19 -32 236 -30 207 3 219 4 222 22 5 25 -23 46 -63 46 -21 0 -40 9
-56 26 -23 25 -24 32 -28 196 l-3 171 61 -5 c69 -5 94 -23 138 -97 58 -101
147 -229 191 -273 67 -70 121 -89 235 -86 87 3 92 4 95 25 4 24 -14 35 -71 48
-56 12 -154 124 -276 318 -34 53 -61 99 -61 102 0 3 7 5 15 5 29 0 130 58 169
96 136 135 85 334 -103 405 -63 24 -104 27 -443 33 -194 4 -239 2 -248 -9z
m575 -82 c22 -12 50 -32 62 -45 71 -76 71 -224 0 -305 -46 -52 -85 -65 -219
-71 l-118 -5 0 179 c0 186 9 246 38 264 30 18 191 7 237 -17z"/>
<path d="M5879 1974 c-22 -26 -1 -51 47 -57 29 -3 54 -13 68 -26 21 -21 21
-29 24 -404 1 -210 0 -392 -3 -405 -9 -37 -42 -62 -79 -62 -38 0 -70 -25 -62
-47 3 -8 6 -17 6 -19 0 -2 178 -4 395 -4 l395 0 10 23 c5 12 16 69 25 127 15
98 15 106 -2 117 -22 17 -58 17 -71 1 -5 -7 -18 -39 -28 -71 -10 -31 -30 -72
-45 -90 l-27 -32 -145 -3 c-92 -2 -153 1 -166 7 -31 17 -41 73 -41 243 l0 157
158 3 157 3 0 30 0 30 -157 3 -158 3 0 209 0 210 125 0 c198 0 218 -16 259
-202 7 -33 43 -46 76 -28 22 12 23 14 16 144 -4 72 -10 134 -14 137 -4 4 -175
9 -380 11 -292 3 -375 1 -383 -8z"/>
<path d="M6847 1976 c-11 -29 4 -44 54 -56 92 -22 89 -6 89 -446 0 -226 -4
-393 -10 -408 -10 -29 -34 -41 -93 -51 -34 -6 -38 -9 -35 -33 l3 -27 177 -3
c174 -2 177 -2 183 20 9 28 -17 48 -62 48 -40 0 -70 27 -78 72 -3 18 -4 183
-3 366 l3 333 314 -421 315 -421 35 3 36 3 5 457 c5 451 5 458 26 479 14 13
39 23 68 26 33 4 47 11 52 25 13 41 -7 45 -189 44 l-172 -1 0 -30 c0 -26 4
-30 30 -33 50 -5 83 -22 93 -50 10 -25 26 -642 17 -642 -2 0 -111 141 -242
313 -131 171 -253 329 -272 350 -59 65 -120 89 -237 95 -87 4 -102 2 -107 -12z"/>
<path d="M8037 1973 c-4 -3 -7 -68 -7 -144 0 -138 0 -139 24 -145 44 -11 63
10 81 92 12 53 25 85 45 107 27 31 32 32 119 35 l91 4 0 -426 0 -427 -25 -24
c-13 -14 -34 -25 -47 -25 -50 0 -68 -11 -68 -41 l0 -29 225 0 225 0 0 29 c0
31 -14 41 -61 41 -18 0 -39 10 -54 25 l-25 24 0 427 0 426 91 -4 c87 -3 92 -4
119 -35 20 -22 33 -54 45 -107 18 -82 37 -103 81 -92 24 6 24 7 24 135 0 71
-3 136 -6 145 -5 14 -53 16 -438 16 -238 0 -436 -3 -439 -7z"/>
</g>
</svg>
